<svg width="1920" height="537" viewBox="0 0 1920 537" fill="none" xmlns="http://www.w3.org/2000/svg">
<path d="M374.5 466C287.5 400 104.167 73 0 237V0C54.8333 189.5 266.932 -34.6897 487 171.5C598 275.5 819 409.5 1127 275.5C1435 141.5 1597.5 212.5 1757 237C1900.81 259.09 1920 139 1920 139V375.5C1826 313.5 1757 380.5 1684.5 438.5C1504.57 582.442 1303.5 531.709 1233 507.5C1147.69 478.205 1247 513.791 1116.5 466C974.383 413.955 878.5 375.209 750.5 438.5C622.5 501.791 487 551.345 374.5 466Z" fill="url(#paint0_linear_17_344)"/>
<defs>
<linearGradient id="paint0_linear_17_344" x1="275" y1="427.506" x2="1810.5" y2="773.503" gradientUnits="userSpaceOnUse">
<stop stop-color="#EBA16E"/>
<stop offset="1" stop-color="#7E8CD8"/>
</linearGradient>
</defs>
</svg>
